<?xml version="1.0" encoding="utf-8"?>
<!-- Generator: Adobe Illustrator 22.1.0, SVG Export Plug-In . SVG Version: 6.00 Build 0)  -->
<svg version="1.1" id="Layer_1" xmlns="http://www.w3.org/2000/svg" xmlns:xlink="http://www.w3.org/1999/xlink" x="0px" y="0px"
	 viewBox="0 0 640 322" style="enable-background:new 0 0 640 322;" xml:space="preserve">
<style type="text/css">
	.st0{fill:#0973B9;}
	.st1{font-family:'Tahoma';}
	.st2{font-size:38.581px;}
	.st3{fill:#F9A31D;}
	.st4{fill:#77BF43;}
</style>
<g>
	<g>
		<path class="st0" d="M375,177.2c0,5.2-1,9.8-3.1,13.7c-2.1,4-4.9,7.2-8.4,9.8c-4.2,3.1-8.6,5.3-13.4,6.6
			c-4.8,1.3-10.9,1.9-18.5,1.9h-31.8V104.9h29.4c7.9,0,13.8,0.2,17.8,0.7c3.9,0.5,7.7,1.6,11.4,3.5c4,2,6.9,4.6,8.7,7.9
			c1.8,3.2,2.8,7.1,2.8,11.5c0,4.9-1.4,9.3-4.1,13.2c-2.8,3.9-6.6,6.9-11.4,9.1v0.6c6.6,1.7,11.7,4.8,15.4,9.2
			C373.2,164.9,375,170.5,375,177.2 M354.4,130.4c0-2.5-0.4-4.7-1.3-6.6c-0.9-1.8-2.3-3.3-4.3-4.4c-2.4-1.3-5-2-8-2.3
			c-2.9-0.3-7-0.4-12.1-0.4h-14.2v30.5h16.8c4.6,0,8-0.2,10.2-0.7c2.2-0.4,4.4-1.4,6.8-2.8c2.2-1.4,3.8-3.1,4.8-5.3
			C353.9,136.3,354.4,133.6,354.4,130.4 M359.7,177.7c0-3.9-0.6-7.2-1.8-9.7c-1.2-2.5-3.6-4.7-7.2-6.5c-2.3-1.2-4.9-1.9-7.7-2.2
			c-2.8-0.3-6.7-0.5-11.7-0.5h-16.8v38.6h12c6.5,0,11.6-0.3,15.3-0.8c3.7-0.6,7-1.8,9.8-3.6c2.8-1.8,4.8-3.9,6.1-6.2
			C359,184.4,359.7,181.4,359.7,177.7"/>
		<polygon class="st0" points="389.7,209.2 389.7,104.9 459.2,104.9 459.2,117.2 404.4,117.2 404.4,145.8 455.5,145.8 455.5,158.2 
			404.4,158.2 404.4,196.9 459.2,196.9 459.2,209.2 		"/>
		<path class="st0" d="M506.3,211.1c-8,0-14.9-0.8-20.5-2.3c-5.6-1.6-10.9-3.5-15.9-5.8v-17.4h1c4.9,4.3,10.4,7.6,16.5,10
			c6.2,2.3,12.1,3.5,17.8,3.5c8.1,0,14.3-1.6,18.5-4.8c4.2-3.2,6.3-7.4,6.3-12.6c0-4.2-1.1-7.5-3.3-10.2c-2.2-2.6-5.7-4.6-10.4-5.8
			c-3.4-0.9-6.6-1.7-9.4-2.3c-2.8-0.6-6.4-1.4-10.7-2.4c-3.8-0.9-7.3-2.1-10.3-3.6c-3-1.5-5.7-3.3-8-5.7c-2.3-2.3-4.1-5-5.3-8.1
			c-1.3-3.1-1.9-6.7-1.9-10.8c0-8.4,3.5-15.5,10.5-21.2c7-5.7,15.9-8.6,26.8-8.6c6.2,0,12.1,0.6,17.6,1.8c5.5,1.2,10.7,2.8,15.4,5
			v16.6h-1.1c-3.5-3-8-5.7-13.6-8c-5.5-2.3-11.3-3.4-17.3-3.4c-6.9,0-12.4,1.5-16.6,4.5c-4.2,3-6.3,7-6.3,11.9c0,4.4,1.2,8,3.7,10.6
			c2.5,2.6,6.1,4.5,10.8,5.7c3.1,0.8,7,1.7,11.5,2.7c4.5,1,8.3,1.9,11.3,2.8c7.6,2.2,13.2,5.5,16.8,9.9c3.5,4.4,5.3,9.9,5.3,16.4
			c0,4.1-0.9,8.1-2.6,12c-1.8,4-4.2,7.3-7.4,10.1c-3.6,3-7.6,5.4-12.1,7C518.6,210.2,513,211.1,506.3,211.1"/>
		<polygon class="st0" points="586.3,209.2 586.3,117.2 549,117.2 549,104.9 638.3,104.9 638.3,117.2 601.1,117.2 601.1,209.2 		"/>
		<text transform="matrix(1 0 0 1 503.5566 250.0171)" class="st0 st1 st2">AVEIRO</text>
	</g>
	<path class="st0" d="M244.4,209.3l-24.4-14.1h-63.8l-24.4,14.1C155,250,225,316.5,300.7,322.3C274.3,307.5,232.3,254.3,244.4,209.3
		"/>
	<path class="st3" d="M192,133L192,133l-0.5-0.8L192,133z M261.6-0.5C262,29.8,237,92.7,192,104.8l0,28.2l31.9,55.3l24.4,14.1
		C271.9,161.8,294.5,68,261.6-0.5"/>
	<path class="st4" d="M152.1,188.3L152.1,188.3l-0.5,0.8L152.1,188.3z M184,104.8c-46.9-0.1-139.5,27.2-182.3,90
		c26-15.5,93-25.3,126,7.7l24.4-14.1L184,133L184,104.8z"/>
	<path class="st0" d="M173,172.2c0-8.3,6.7-15,15-15c8.3,0,15,6.7,15,15c0,8.3-6.7,15-15,15C179.7,187.1,173,180.4,173,172.2"/>
</g>
</svg>
